<svg xmlns="http://www.w3.org/2000/svg" viewBox="0 0 200 200">
  <defs>
    <linearGradient id="light-g1" x1="0%" y1="0%" x2="100%" y2="100%">
      <stop offset="0%" stop-color="#4f46e5"/>
      <stop offset="100%" stop-color="#7c3aed"/>
    </linearGradient>
    <linearGradient id="light-g2" x1="100%" y1="100%" x2="0%" y2="0%">
      <stop offset="0%" stop-color="#06b6d4"/>
      <stop offset="100%" stop-color="#4f46e5"/>
    </linearGradient>
    <radialGradient id="light-bg">
      <stop offset="0%" stop-color="#f5f3ff"/>
      <stop offset="100%" stop-color="#eef2ff"/>
    </radialGradient>
  </defs>
  <rect x="8" y="8" width="184" height="184" rx="36" ry="36"
        fill="url(#light-bg)" stroke="#818cf8" stroke-opacity="0.25" stroke-width="1.5"/>
  <!-- Field lines (ghosted offsets) -->
  <path d="M 24,24 C 68,24 51,84 96,96 C 141,108 124,168 168,168"
        fill="none" stroke="#4f46e5" stroke-width="1.8" opacity="0.12" stroke-linecap="round"/>
  <path d="M 32,32 C 76,32 59,92 104,104 C 149,116 132,176 176,176"
        fill="none" stroke="#7c3aed" stroke-width="1.8" opacity="0.08" stroke-linecap="round"/>
  <path d="M 176,24 C 132,24 149,84 104,96 C 59,108 76,168 32,168"
        fill="none" stroke="#06b6d4" stroke-width="1.8" opacity="0.12" stroke-linecap="round"/>
  <path d="M 168,32 C 124,32 141,92 96,104 C 51,116 68,176 24,176"
        fill="none" stroke="#4f46e5" stroke-width="1.8" opacity="0.08" stroke-linecap="round"/>
  <!-- Main paths -->
  <path d="M 28,28 C 72,28 55,88 100,100 C 145,112 128,172 172,172"
        fill="none" stroke="url(#light-g1)" stroke-width="5" stroke-linecap="round"/>
  <path d="M 172,28 C 128,28 145,88 100,100 C 55,112 72,172 28,172"
        fill="none" stroke="url(#light-g2)" stroke-width="5" stroke-linecap="round"/>
  <!-- Vertex -->
  <circle cx="100" cy="100" r="7" fill="#1e1b4b"/>
</svg>
